<svg width="134" height="48" viewBox="0 0 134 48" fill="none" xmlns="http://www.w3.org/2000/svg">
<path fill-rule="evenodd" clip-rule="evenodd" d="M22.6123 32.5375C24.0791 32.5375 25.2845 32.8451 26.3896 33.4613C27.4947 34.0775 28.3545 34.9428 28.9707 36.057C29.5869 37.1714 29.8945 38.4544 29.8945 39.9028C29.8945 40.4652 29.858 40.9724 29.7861 41.4242L29.7822 41.4223H18.3438C18.4342 42.6179 18.8769 43.5799 19.6758 44.3031C20.4727 45.0279 21.4502 45.389 22.6104 45.3891C24.2763 45.3891 25.4535 44.692 26.1436 43.2973H29.4873C29.0334 44.6737 28.2137 45.8028 27.0273 46.6811C25.8411 47.5591 24.3686 47.9985 22.6123 47.9985C21.1807 47.9984 19.9003 47.6774 18.7676 47.0336C17.6348 46.3916 16.7475 45.4836 16.1055 44.3158C15.4616 43.148 15.1407 41.7938 15.1406 40.2533C15.1406 38.7127 15.4517 37.3578 16.0771 36.1899C16.7025 35.0221 17.5812 34.1205 18.7139 33.4877C19.8448 32.8531 21.1457 32.5376 22.6123 32.5375ZM22.4727 35.144C21.4044 35.144 20.4886 35.4836 19.7266 36.1625C18.9666 36.8415 18.513 37.7628 18.3691 38.9213H26.6572C26.6385 37.7799 26.2303 36.8669 25.4336 36.1772C24.6366 35.4891 23.6496 35.144 22.4727 35.144Z" fill="#122882"/>
<path fill-rule="evenodd" clip-rule="evenodd" d="M64.917 47.7533H61.792V45.4985C61.2847 46.2235 60.5831 46.821 59.6865 47.2914C58.7899 47.7619 57.762 47.9984 56.6016 47.9985C55.2971 47.9985 54.1048 47.6677 53.0273 47.0053C51.9502 46.3449 51.0981 45.4208 50.4746 44.2348C49.8492 43.0485 49.5371 41.7033 49.5371 40.1996C49.5371 38.696 49.8492 37.366 50.4746 36.2055C51.1 35.0469 51.95 34.1444 53.0273 33.5024C54.1047 32.8604 55.3061 32.5376 56.627 32.5375C57.6048 32.5375 58.5704 32.749 59.5225 33.1752C60.4726 33.6014 61.2293 34.1677 61.792 34.8725V27.644H64.917V47.7533ZM57.2529 35.225C56.456 35.225 55.7125 35.4208 55.0244 35.81C54.3362 36.1993 53.7787 36.7719 53.3525 37.5229C52.9265 38.2756 52.7139 39.1666 52.7139 40.1996C52.7139 41.2328 52.9264 42.1388 53.3525 42.9174C53.7787 43.6959 54.3398 44.29 55.0371 44.6977C55.7345 45.1054 56.4724 45.308 57.251 45.308C58.0295 45.308 58.7895 45.1089 59.4795 44.7104C60.1677 44.3118 60.7252 43.7287 61.1514 42.9574C61.5774 42.1882 61.79 41.2863 61.79 40.2553C61.79 39.224 61.5757 38.325 61.1514 37.5649L61.1533 37.5629C60.7271 36.8028 60.1696 36.2212 59.4814 35.8227C58.7934 35.4243 58.0498 35.225 57.2529 35.225Z" fill="#122882"/>
<path fill-rule="evenodd" clip-rule="evenodd" d="M75.0254 32.5375C76.2024 32.5375 77.2303 32.7677 78.1104 33.2289C78.9886 33.6902 79.6918 34.2663 80.2158 34.9545V32.7807H83.3408V47.7533H80.2158V45.5238C79.6901 46.2304 78.9742 46.819 78.0703 47.2895C77.1645 47.7599 76.1311 47.9964 74.9727 47.9965C73.6869 47.9965 72.5094 47.6665 71.4395 47.0043C70.3712 46.3438 69.5239 45.4191 68.8984 44.2328C68.273 43.0465 67.961 41.7013 67.9609 40.1977C67.9609 38.6941 68.2731 37.364 68.8984 36.2035C69.5239 35.045 70.3748 34.1444 71.4521 33.5024C72.5295 32.8604 73.7211 32.5376 75.0254 32.5375ZM75.6768 35.225C74.8798 35.2251 74.1363 35.4207 73.4482 35.81C72.7601 36.1992 72.2026 36.7711 71.7764 37.5219C71.3502 38.2747 71.1387 39.1664 71.1387 40.1996C71.1387 41.2328 71.3502 42.1389 71.7764 42.9174C72.2025 43.6959 72.7636 44.2899 73.4609 44.6977C74.1582 45.1054 74.8963 45.308 75.6748 45.308C76.4534 45.308 77.2143 45.1089 77.9043 44.7104C78.5923 44.3118 79.1491 43.7285 79.5752 42.9574C80.0014 42.1881 80.2139 41.2856 80.2139 40.2543C80.2138 39.2231 79.9995 38.3249 79.5752 37.5649L79.5771 37.5629C79.151 36.8029 78.5943 36.2212 77.9062 35.8227C77.2181 35.4242 76.4738 35.225 75.6768 35.225Z" fill="#122882"/>
<path d="M94.998 35.7436H94.21C92.9962 35.7437 92.0775 36.0522 91.4521 36.6684C90.8268 37.2846 90.5147 38.3526 90.5146 39.8744V47.7543H87.417V32.7826H90.5146V34.9555C90.9667 34.1954 91.5704 33.6014 92.3213 33.1752C93.0721 32.7491 93.965 32.5375 94.998 32.5375V35.7436Z" fill="#122882"/>
<path fill-rule="evenodd" clip-rule="evenodd" d="M6.52246 28.8676C7.97066 28.8676 9.19962 29.1165 10.2051 29.6147C11.2105 30.1128 11.9609 30.7886 12.459 31.6391C12.9571 32.4915 13.207 33.4418 13.207 34.4916C13.207 35.4526 12.9792 36.3562 12.5273 37.2084V37.2104C12.0735 38.0628 11.3508 38.7554 10.3545 39.2904C9.35825 39.8255 8.08135 40.0912 6.52246 40.0912H3.09766V47.7533H0V28.8676H6.52246ZM3.09766 37.5629H6.52246C7.69938 37.5629 8.57708 37.2951 9.1582 36.7602V36.7621C9.73754 36.2271 10.0273 35.4705 10.0273 34.4926C10.0272 32.4284 8.85972 31.395 6.52246 31.3949H3.09766V37.5629Z" fill="#122882"/>
<path d="M40.4893 32.5356C41.6662 32.5356 42.7218 32.7792 43.6553 33.2699C44.5885 33.7588 45.317 34.4837 45.8428 35.4428C46.3686 36.4022 46.6309 37.5634 46.6309 38.9213V47.7533H43.5605V39.3842C43.5605 38.0449 43.2252 37.0151 42.5557 36.2992C41.8859 35.5834 40.9701 35.225 39.8096 35.225C38.6492 35.2251 37.7307 35.5834 37.0518 36.2992C36.3728 37.0151 36.0332 38.0429 36.0332 39.3842V47.7533H32.9355V32.7807H36.0332V34.4926C36.5405 33.8765 37.188 33.3971 37.9756 33.0522C38.7634 32.709 39.6018 32.5356 40.4893 32.5356Z" fill="#122882"/>
<path d="M111.792 9.04243C111.792 9.33763 111.674 9.62177 111.464 9.83025C111.338 9.9594 111.18 10.0535 111.01 10.107C110.901 10.1402 110.787 10.1568 110.672 10.1568C110.377 10.1568 110.093 10.0424 109.881 9.82841C109.711 9.65867 109.604 9.4428 109.567 9.20848L107.414 1.20111L107.443 1.19373C107.425 1.11808 107.414 1.03505 107.414 0.955719C107.414 0.706642 107.512 0.463099 107.694 0.282287C107.823 0.149446 107.986 0.0627304 108.159 0.02214C108.227 0.00737987 108.296 0 108.368 0C108.617 0 108.857 0.097786 109.041 0.280443C109.15 0.389299 109.226 0.51845 109.272 0.658671L109.283 0.688191L111.724 8.66051L111.746 8.72509H111.742C111.774 8.82656 111.792 8.93173 111.792 9.03874V9.04243Z" fill="#122882"/>
<path d="M108.965 16.2398C108.965 16.4169 108.919 16.5922 108.829 16.7472C108.786 16.8228 108.731 16.8948 108.666 16.9593C108.473 17.1494 108.216 17.2545 107.947 17.2545C107.761 17.2545 107.576 17.2047 107.417 17.1069L107.38 17.0848L95.4949 10.142C95.4451 10.1125 95.4008 10.0774 95.3584 10.0331C95.2108 9.88553 95.1351 9.6918 95.1351 9.49623C95.1351 9.37446 95.1646 9.25453 95.2292 9.14383C95.2587 9.07926 95.3049 9.01468 95.3584 8.95933C95.506 8.81173 95.6997 8.73608 95.8953 8.73608C95.9967 8.73608 96.1 8.75822 96.1941 8.80066C96.2366 8.81542 96.2772 8.83572 96.3122 8.86155L108.336 15.2933L108.347 15.3007L108.458 15.3579C108.534 15.3966 108.602 15.4519 108.666 15.5165C108.856 15.7066 108.965 15.9667 108.965 16.2361V16.2398Z" fill="#F2630D"/>
<path d="M106.916 21.9226C106.916 22.24 106.84 22.5389 106.7 22.8046C106.609 22.9854 106.491 23.1496 106.347 23.2935C106.135 23.5057 105.879 23.668 105.591 23.7621L105.515 23.788L97.9432 26.1496H97.9395L97.5687 26.264C97.4248 26.2972 97.2698 26.3138 97.1148 26.3138C96.5281 26.3138 95.9986 26.0758 95.6167 25.6939C95.4727 25.5499 95.351 25.3839 95.2532 25.2049C95.2458 25.1939 95.2384 25.1828 95.2384 25.1717C95.1849 25.0426 95.1296 24.9116 95.0798 24.7824V24.775H95.0761C95.0262 24.5905 94.9967 24.3968 94.9967 24.1957C94.9967 23.6127 95.231 23.0832 95.6167 22.6975C95.8786 22.4337 96.2144 22.24 96.589 22.1459L104.273 20.1145H104.277C104.493 20.0278 104.731 19.9817 104.98 19.9817C105.178 19.9817 105.369 20.0112 105.548 20.0684C105.855 20.1625 106.128 20.3322 106.347 20.5518C106.582 20.7824 106.755 21.0702 106.844 21.395C106.89 21.561 106.916 21.7363 106.916 21.9208V21.9226Z" fill="#122882"/>
<path d="M132.532 14.3412C132.532 14.701 132.388 15.0405 132.139 15.2877C131.991 15.4353 131.814 15.5442 131.62 15.6087C131.609 15.6161 131.594 15.6198 131.583 15.6235L123.773 18.0682C123.629 18.1143 123.482 18.1364 123.327 18.1364C122.914 18.1364 122.532 17.9704 122.249 17.6899C122.076 17.5165 121.95 17.308 121.875 17.0774C121.829 16.9298 121.803 16.7748 121.803 16.6124C121.803 16.2028 121.969 15.8209 122.249 15.5386C122.439 15.3486 122.674 15.2102 122.938 15.1456L123.043 15.1161L130.784 13.0571L130.827 13.046C130.941 13.0128 131.065 12.9962 131.187 12.9962C131.55 12.9962 131.89 13.1401 132.137 13.3892C132.183 13.4353 132.227 13.487 132.266 13.5405C132.266 13.5405 132.267 13.5429 132.27 13.5479C132.342 13.6881 132.41 13.8357 132.478 13.9796C132.478 13.9796 132.479 13.9821 132.482 13.987C132.515 14.0995 132.528 14.2176 132.528 14.3394L132.532 14.3412Z" fill="#122882"/>
<path d="M112.526 24.4537C112.526 24.7268 112.462 24.9869 112.342 25.2139L112.303 25.2858L106.997 35.2489L106.831 35.5626L106.827 35.5663C106.755 35.6807 106.668 35.7858 106.574 35.8836C106.226 36.2323 105.742 36.4445 105.216 36.4445C104.879 36.4445 104.558 36.3578 104.281 36.2028C104.266 36.1954 104.248 36.1844 104.235 36.1733C104.22 36.1659 104.205 36.1585 104.192 36.1474C104.189 36.1474 104.185 36.1438 104.181 36.1364C104.139 36.1106 104.098 36.0829 104.06 36.0534C104.037 36.0386 104.017 36.0201 103.995 36.0072C103.949 35.9685 103.901 35.9242 103.858 35.8818C103.51 35.5294 103.294 35.0497 103.294 34.5201C103.294 34.1788 103.384 33.8578 103.547 33.5773L103.626 33.4445L108.58 25.0552L109.397 23.677L109.477 23.5404C109.537 23.4464 109.609 23.3596 109.689 23.2803C109.995 22.974 110.412 22.7914 110.866 22.7914C111.154 22.7914 111.427 22.867 111.665 22.9999C111.805 23.0718 111.93 23.1696 112.043 23.2803C112.346 23.5829 112.528 23.9999 112.528 24.4537H112.526Z" fill="#F2630D"/>
<path d="M133.583 29.7175C133.583 29.8319 133.569 29.9482 133.547 30.0552C133.543 30.0626 133.543 30.0663 133.539 30.0736C133.486 30.2065 133.434 30.3393 133.377 30.4666C133.373 30.4851 133.366 30.5035 133.355 30.5164C133.351 30.5312 133.344 30.5423 133.336 30.5515C133.275 30.6419 133.207 30.7286 133.131 30.8043C132.851 31.0847 132.465 31.2544 132.048 31.2544C131.799 31.2544 131.559 31.1936 131.349 31.0847L131.288 31.0497L131.266 31.0386L114.181 21.3227L113 20.6493L112.978 20.6382V20.6345C112.868 20.5773 112.77 20.5017 112.679 20.4113C112.513 20.2452 112.395 20.0441 112.331 19.8172C112.294 19.6954 112.277 19.5681 112.277 19.439C112.277 19.2009 112.338 18.9703 112.454 18.7729V18.7692L121.146 3.77845L121.168 3.73971H121.172C121.218 3.65668 121.277 3.57734 121.345 3.50908C121.561 3.2969 121.853 3.17329 122.159 3.17329C122.465 3.17329 122.753 3.29506 122.969 3.50908C123.185 3.72495 123.303 4.01646 123.303 4.32273C123.303 4.54229 123.242 4.75447 123.126 4.93528L123.111 4.95742L114.969 19.0626L132.733 28.3449L132.786 28.3744C132.912 28.4426 133.032 28.5294 133.131 28.6345C133.416 28.915 133.582 29.3006 133.582 29.7175H133.583Z" fill="#F2630D"/>
<path d="M120.858 38.677C120.858 39.1493 120.668 39.5847 120.351 39.8984C120.135 40.1143 119.866 40.2729 119.563 40.3486C119.423 40.3873 119.279 40.4058 119.128 40.4058C118.655 40.4058 118.224 40.2157 117.906 39.8984C117.716 39.7083 117.569 39.474 117.486 39.2102L117.436 39.0238V39.0128L115.333 31.07L115.303 30.9556C115.273 30.8412 115.261 30.7176 115.261 30.5958C115.261 30.1715 115.43 29.7785 115.718 29.4906C115.903 29.3061 116.128 29.1696 116.38 29.0977C116.521 29.0552 116.672 29.0331 116.823 29.0331C117.248 29.0331 117.641 29.2028 117.928 29.4906C118.083 29.6419 118.202 29.8246 118.277 30.0275L118.281 30.0423L118.342 30.2397L120.726 38.0109L120.733 38.0294L120.809 38.2785C120.842 38.4076 120.858 38.5405 120.858 38.6825V38.677Z" fill="#122882"/>
</svg>
