<svg width="128" height="128" viewBox="0 0 128 128" fill="none" xmlns="http://www.w3.org/2000/svg">
<rect width="128" height="128" rx="24" fill="#122882"/>
<path d="M57.9295 38.2518C57.9295 38.9452 57.6498 39.6154 57.1603 40.1048C56.8631 40.4079 56.4902 40.6293 56.0939 40.7575C55.8375 40.8332 55.5695 40.874 55.2956 40.874C54.6022 40.874 53.932 40.606 53.4309 40.1048C53.0347 39.7086 52.7783 39.2016 52.6967 38.648L47.6387 19.8262L47.7086 19.8087C47.6678 19.6339 47.6387 19.4358 47.6387 19.2493C47.6387 18.6666 47.8659 18.0897 48.2971 17.6643C48.6002 17.3496 48.9848 17.1457 49.3868 17.0524C49.55 17.0175 49.7073 17 49.8763 17C50.459 17 51.0301 17.2273 51.4613 17.6585C51.7177 17.9149 51.8925 18.2179 52.0032 18.5442L52.0266 18.6141L57.7663 37.3486L57.8188 37.5001H57.813C57.8887 37.739 57.9295 37.9837 57.9295 38.2343V38.2518Z" fill="#F2630D"/>
<path d="M51.2854 55.1683C51.2854 55.582 51.1747 55.9957 50.9649 56.3629C50.8658 56.5435 50.7376 56.7125 50.5861 56.864C50.1316 57.3127 49.5256 57.5574 48.8962 57.5574C48.4534 57.5574 48.0222 57.4409 47.655 57.2078L47.5676 57.1554L43.3429 54.6905L19.6321 40.8392C19.5155 40.7693 19.4106 40.6877 19.3116 40.5828C18.9619 40.2332 18.7871 39.7787 18.7871 39.3241C18.7871 39.0386 18.857 38.7589 19.0085 38.4967C19.0785 38.3452 19.1892 38.1937 19.3116 38.0655C19.6612 37.7158 20.1157 37.541 20.5702 37.541C20.8091 37.541 21.0539 37.5935 21.2753 37.6925C21.3744 37.7275 21.4676 37.7799 21.555 37.8382L45.2309 50.5065L49.8111 52.9539L49.8344 52.9714L50.0966 53.1055C50.2773 53.1987 50.4346 53.3269 50.5861 53.4784C51.0348 53.9271 51.2912 54.5389 51.2912 55.1683H51.2854Z" fill="#F2630D"/>
<path d="M46.4723 68.5178C46.4723 69.2637 46.2917 69.963 45.9653 70.5923C45.7556 71.0177 45.4759 71.4023 45.1379 71.7461C44.6367 72.2472 44.0365 72.626 43.3606 72.8474L43.1858 72.9057L25.3895 78.459H25.3837L24.5096 78.7271C24.1716 78.8028 23.8045 78.8436 23.4432 78.8436C22.0622 78.8436 20.821 78.2842 19.9236 77.3868C19.5856 77.0489 19.3001 76.6584 19.067 76.2389C19.0495 76.2156 19.032 76.1864 19.032 76.1631C18.9038 75.8601 18.7756 75.5513 18.6591 75.2483V75.2308H18.6533C18.5367 74.7996 18.4668 74.345 18.4668 73.8672C18.4668 72.4978 19.0146 71.2508 19.9236 70.3476C20.5413 69.7299 21.3279 69.2754 22.2078 69.0539L22.4351 68.9957L40.2663 64.2815H40.2722C40.7791 64.0775 41.3385 63.9668 41.9213 63.9668C42.3874 63.9668 42.8361 64.0367 43.2557 64.1708C43.9724 64.3922 44.6192 64.7884 45.132 65.3071C45.6798 65.849 46.0877 66.5249 46.2975 67.2883C46.4082 67.6787 46.4665 68.0924 46.4665 68.5237L46.4723 68.5178Z" fill="#F2630D"/>
<path d="M106.673 50.7052C106.673 51.5502 106.335 52.3485 105.753 52.9312C105.403 53.2809 104.989 53.5314 104.535 53.6829C104.511 53.7004 104.476 53.7063 104.447 53.7179L86.0916 59.4635C85.7537 59.5742 85.404 59.6267 85.0428 59.6267C84.0696 59.6267 83.1722 59.2363 82.5137 58.5778C82.1058 58.1699 81.8086 57.6804 81.6338 57.1385C81.5231 56.7888 81.4648 56.4276 81.4648 56.0488C81.4648 55.0815 81.8553 54.1899 82.5137 53.5256C82.9624 53.0769 83.5102 52.7564 84.1279 52.6049L84.3726 52.535L102.565 47.6926L102.664 47.6693C102.932 47.5935 103.224 47.5527 103.509 47.5527C104.366 47.5527 105.158 47.8907 105.741 48.4734C105.852 48.5841 105.951 48.7007 106.044 48.8289C106.044 48.8289 106.046 48.8347 106.05 48.8464C106.219 49.1785 106.382 49.5223 106.539 49.8603C106.539 49.8603 106.541 49.8661 106.545 49.8778C106.621 50.14 106.656 50.4197 106.656 50.7052H106.673Z" fill="#F2630D"/>
<path d="M59.6536 74.4686C59.6536 75.1096 59.5021 75.7215 59.2224 76.2518L59.1291 76.4208L57.1071 80.2201L46.6531 99.8344L46.2627 100.569H46.2569C46.0879 100.848 45.8839 101.093 45.6625 101.32C44.8408 102.142 43.7104 102.643 42.4692 102.643C41.6709 102.643 40.9191 102.439 40.2665 102.078C40.2315 102.06 40.1907 102.037 40.1558 102.008C40.1208 101.99 40.0858 101.973 40.0567 101.95C40.0509 101.95 40.0392 101.944 40.0334 101.926C39.9343 101.868 39.8411 101.798 39.7479 101.734C39.6954 101.699 39.6488 101.658 39.5964 101.623C39.4856 101.53 39.3749 101.431 39.2759 101.326C38.4542 100.499 37.9473 99.3741 37.9473 98.1271C37.9473 97.3229 38.157 96.5712 38.5416 95.9127L38.7281 95.5981L50.3709 75.8788L52.2938 72.6389L52.4803 72.3184C52.626 72.097 52.795 71.893 52.9814 71.7066C53.6982 70.9898 54.683 70.5586 55.7493 70.5586C56.4253 70.5586 57.0721 70.7334 57.6257 71.0481C57.9579 71.2171 58.2492 71.4443 58.5114 71.7066C59.2224 72.4175 59.6536 73.3964 59.6536 74.4628V74.4686Z" fill="#F2630D"/>
<path d="M109.143 86.845C109.143 87.113 109.108 87.3869 109.056 87.6433C109.05 87.6608 109.05 87.6666 109.038 87.6841C108.91 87.9988 108.794 88.3076 108.66 88.6048C108.654 88.6456 108.636 88.6922 108.607 88.7213C108.601 88.7563 108.584 88.7796 108.566 88.8088C108.421 89.0185 108.263 89.2225 108.083 89.4031C107.424 90.0616 106.515 90.4637 105.536 90.4637C104.954 90.4637 104.383 90.318 103.893 90.0674L103.747 89.98L103.695 89.9567L78.7021 75.75L63.5397 67.1258L60.766 65.5408L60.7135 65.5174C60.4513 65.3718 60.224 65.197 60.0084 64.9872C59.618 64.5967 59.3383 64.1247 59.1868 63.5886C59.0994 63.3031 59.0586 63.0059 59.0586 62.6971C59.0586 62.1377 59.2043 61.5957 59.4723 61.1296L61.0632 58.3791L68.5045 45.5476L79.9025 25.8867L79.9549 25.7934H79.9607C80.0715 25.6011 80.2055 25.4147 80.3687 25.2515C80.8756 24.7504 81.5632 24.4648 82.28 24.4648C82.9967 24.4648 83.6785 24.7504 84.1855 25.2515C84.6924 25.7585 84.9722 26.4461 84.9722 27.1628C84.9722 27.6815 84.8265 28.1768 84.5584 28.6022L84.5235 28.6546L73.0905 48.4554L65.3869 61.7997L81.3651 70.1501L107.133 83.6167L107.261 83.6866C107.558 83.8498 107.838 84.0479 108.071 84.2985C108.741 84.957 109.132 85.866 109.132 86.845H109.143Z" fill="#F2630D"/>
<path d="M79.2399 107.898C79.2399 109.005 78.7912 110.031 78.0453 110.765C77.5383 111.272 76.9032 111.645 76.1922 111.826C75.8601 111.919 75.5221 111.96 75.1666 111.96C74.0595 111.96 73.0397 111.511 72.2997 110.765C71.851 110.317 71.5013 109.769 71.309 109.151L71.1925 108.708V108.685L66.251 90.0146L66.1811 89.7465C66.1112 89.4785 66.082 89.1871 66.082 88.9016C66.082 87.9051 66.4783 86.9786 67.1543 86.3027C67.5855 85.8715 68.1216 85.551 68.7101 85.382C69.0423 85.2829 69.3977 85.2305 69.7532 85.2305C70.7496 85.2305 71.6761 85.6267 72.3521 86.3027C72.7134 86.6581 72.9931 87.0893 73.1738 87.5613V87.5963L73.3253 88.0625L78.9252 106.325L78.9427 106.366L79.1175 106.948C79.1933 107.251 79.234 107.566 79.234 107.898H79.2399Z" fill="#F2630D"/>
</svg>
