<svg width="310" height="64" viewBox="0 0 310 64" fill="none" xmlns="http://www.w3.org/2000/svg">
<path d="M165.215 30.8379C166.282 30.8379 167.231 31.0503 168.055 31.4766H168.061C168.887 31.9027 169.531 32.4311 169.999 33.0654V31.0625H172.877V45.0801C172.877 46.3491 172.611 47.4773 172.076 48.4707C171.541 49.4641 170.768 50.2424 169.759 50.8096C168.749 51.3768 167.544 51.6621 166.141 51.6621C164.272 51.662 162.721 51.2234 161.484 50.3486C160.251 49.4738 159.549 48.2842 159.383 46.7812H162.212C162.43 47.499 162.892 48.0793 163.6 48.5215C164.308 48.9637 165.154 49.1855 166.141 49.1855C167.291 49.1855 168.224 48.8356 168.933 48.1338C169.641 47.432 169.996 46.4162 169.996 45.0801V42.7754C169.512 43.4259 168.859 43.9748 168.032 44.417C167.205 44.8592 166.266 45.0801 165.215 45.0801C164.013 45.0801 162.917 44.7758 161.924 44.167C160.93 43.5581 160.145 42.7051 159.571 41.6123C158.995 40.5197 158.709 39.2797 158.709 37.8955C158.709 36.5111 158.998 35.283 159.571 34.2158C160.148 33.1488 160.93 32.3194 161.924 31.7266C162.917 31.1337 164.013 30.8379 165.215 30.8379ZM69.1064 30.8379C70.1894 30.838 71.1378 31.0504 71.9453 31.4766C72.7527 31.9027 73.3999 32.4311 73.8838 33.0654V31.0625H76.7617V44.8555H73.8838V42.8047C73.3999 43.4551 72.7402 43.9968 71.9072 44.4326C71.074 44.8653 70.1219 45.083 69.0547 45.083C67.869 45.083 66.7856 44.7788 65.8018 44.1699C64.8181 43.5611 64.0365 42.7087 63.4629 41.6162C62.8861 40.5234 62.6006 39.2828 62.6006 37.8984C62.6006 36.5141 62.8893 35.2869 63.4629 34.2197V34.2158C64.0396 33.149 64.8213 32.3193 65.8145 31.7266C66.8079 31.1337 67.9047 30.8379 69.1064 30.8379ZM221.887 30.8379C222.97 30.8379 223.918 31.0504 224.726 31.4766C225.533 31.9028 226.181 32.4309 226.665 33.0654V31.0625H229.543V44.8555H226.665V42.8047C226.181 43.4552 225.521 43.9968 224.688 44.4326C223.854 44.8652 222.902 45.083 221.835 45.083C220.65 45.0829 219.567 44.7786 218.583 44.1699C217.599 43.5611 216.817 42.7088 216.243 41.6162C215.666 40.5234 215.381 39.2828 215.381 37.8984C215.381 36.5141 215.67 35.2868 216.243 34.2197V34.2158C216.82 33.1488 217.602 32.3194 218.596 31.7266C219.589 31.1337 220.685 30.8379 221.887 30.8379ZM264.864 30.8379C265.947 30.8379 266.897 31.0503 267.704 31.4766C268.511 31.9027 269.159 32.4311 269.643 33.0654V31.0625H272.521V44.8555H269.643V42.8047C269.159 43.4552 268.498 43.9968 267.665 44.4326C266.832 44.8651 265.88 45.083 264.813 45.083C263.628 45.083 262.544 44.7788 261.561 44.1699C260.577 43.5611 259.794 42.7089 259.221 41.6162C258.644 40.5234 258.359 39.2828 258.359 37.8984C258.359 36.5142 258.647 35.2868 259.221 34.2197V34.2158C259.797 33.1488 260.58 32.3194 261.573 31.7266C262.567 31.1337 263.663 30.8379 264.864 30.8379ZM20.8301 30.8379C22.1823 30.8379 23.2915 31.1233 24.3105 31.6904C25.3295 32.2576 26.1213 33.0557 26.6885 34.0811C27.2557 35.1066 27.541 36.2899 27.541 37.623C27.541 38.1389 27.5087 38.6069 27.4414 39.0234H16.8945C16.9779 40.1257 17.3883 41.0102 18.1221 41.6768C18.8559 42.3433 19.7568 42.6768 20.8271 42.6768C22.3621 42.6768 23.4455 42.0358 24.0801 40.751H27.1592C26.7425 42.0198 25.9862 43.0578 24.8936 43.8652C23.8008 44.676 22.4455 45.0801 20.8271 45.0801C19.5101 45.0801 18.3276 44.7852 17.2861 44.1924C16.2446 43.5995 15.4236 42.7662 14.834 41.6895C14.2412 40.6127 13.9463 39.3659 13.9463 37.9463C13.9463 36.5267 14.235 35.2799 14.8086 34.2031C15.3822 33.1264 16.1936 32.2961 17.2383 31.7129C18.2796 31.1298 19.478 30.8379 20.8301 30.8379ZM140.548 30.8379C141.9 30.8379 143.009 31.1233 144.028 31.6904C145.047 32.2576 145.839 33.0558 146.406 34.0811C146.973 35.1066 147.259 36.2899 147.259 37.623C147.259 38.1389 147.226 38.6069 147.159 39.0234H136.613C136.697 40.1256 137.106 41.0103 137.84 41.6768C138.574 42.3433 139.475 42.6767 140.545 42.6768C142.08 42.6768 143.163 42.0358 143.798 40.751H146.878C146.461 42.0199 145.704 43.0577 144.611 43.8652C143.519 44.6759 142.163 45.0801 140.545 45.0801C139.228 45.0801 138.045 44.7852 137.004 44.1924C135.962 43.5995 135.142 42.7661 134.553 41.6895C133.96 40.6127 133.665 39.366 133.665 37.9463C133.665 36.5267 133.953 35.2799 134.526 34.2031C135.1 33.1264 135.911 32.2961 136.956 31.7129C137.997 31.1298 139.196 30.8379 140.548 30.8379ZM59.793 44.8545H56.916V42.7783C56.4481 43.4449 55.8002 43.9961 54.9766 44.4287C54.1499 44.8613 53.2047 45.0791 52.1377 45.0791C50.9359 45.0791 49.8392 44.7749 48.8457 44.166C47.8524 43.5571 47.0677 42.704 46.4941 41.6113C45.9174 40.5186 45.6319 39.2788 45.6318 37.8945C45.6318 36.5101 45.9205 35.282 46.4941 34.2148H46.4902C47.067 33.1479 47.8495 32.3184 48.8428 31.7256C49.8362 31.1327 50.9424 30.8379 52.1602 30.8379C53.0605 30.8379 53.9482 31.0327 54.8262 31.4268C55.7011 31.8177 56.4001 32.3407 56.916 32.9912V26.332H59.793V44.8545ZM102.249 27.2334C103.935 27.2334 105.316 27.6565 106.393 28.4961C107.469 29.3389 108.065 30.4953 108.181 31.9629H105.027C104.976 31.3285 104.678 30.7867 104.127 30.335C103.576 29.8833 102.852 29.6592 101.948 29.6592C101.131 29.6592 100.464 29.8676 99.9453 30.2842C99.4294 30.7008 99.169 31.303 99.1689 32.085C99.1689 32.6201 99.3326 33.0565 99.6562 33.3994C99.9831 33.7422 100.394 34.011 100.896 34.2129C101.4 34.4147 102.082 34.6294 102.947 34.8633C104.098 35.1805 105.037 35.4982 105.765 35.8154C106.492 36.1327 107.108 36.6201 107.617 37.2803C108.127 37.9404 108.38 38.8187 108.38 39.9209C108.38 40.8052 108.142 41.6388 107.665 42.4238C107.191 43.2087 106.496 43.837 105.589 44.3145C104.679 44.7887 103.608 45.0283 102.371 45.0283C101.202 45.0283 100.15 44.8239 99.2178 44.417C98.282 44.0068 97.5476 43.4298 97.0156 42.6768C96.4805 41.9269 96.2149 41.0486 96.2148 40.0488H99.2686C99.3359 40.7987 99.6307 41.4175 100.156 41.9014C100.682 42.3852 101.419 42.6289 102.371 42.6289C103.323 42.6289 104.124 42.3914 104.675 41.9141C105.226 41.4398 105.502 40.8241 105.502 40.0742C105.502 39.4911 105.332 39.0137 104.989 38.6484C104.646 38.2832 104.22 37.9978 103.714 37.7959C103.204 37.5972 102.499 37.3794 101.599 37.1455C100.464 36.8443 99.5412 36.5391 98.833 36.2314C98.1249 35.9238 97.5194 35.4434 97.0195 34.793C96.5196 34.1424 96.2695 33.2736 96.2695 32.1904C96.2696 31.1907 96.5197 30.3123 97.0195 29.5625C97.5194 28.8129 98.2209 28.2364 99.1211 27.8359C100.022 27.4354 101.067 27.2334 102.249 27.2334ZM192.576 38.5439C192.576 39.8611 192.923 40.8549 193.615 41.5215C194.307 42.1878 195.272 42.5215 196.506 42.5215C197.739 42.5214 198.73 42.188 199.422 41.5215C200.114 40.8549 200.46 39.8611 200.46 38.5439V27.4561H203.312V38.4932C203.312 39.9127 203.004 41.1149 202.386 42.0986C201.767 43.0821 200.944 43.816 199.909 44.2998C198.874 44.7837 197.733 45.0273 196.479 45.0273C195.227 45.0273 194.089 44.7869 193.063 44.2998C192.038 43.8159 191.224 43.0824 190.621 42.0986C190.022 41.1149 189.721 39.9127 189.721 38.4932V27.4561H192.576V38.5439ZM37.293 30.8379C38.376 30.8379 39.3502 31.0629 40.209 31.5146C41.0678 31.9665 41.7417 32.6331 42.2256 33.5176C42.7094 34.402 42.9521 35.4697 42.9521 36.7227V44.8555H40.123V37.1455C40.123 35.9117 39.8148 34.9626 39.1963 34.3057C38.5778 33.6457 37.735 33.3154 36.668 33.3154C35.601 33.3155 34.7518 33.6456 34.127 34.3057C33.502 34.9658 33.1875 35.9117 33.1875 37.1455V44.8555H30.3359V31.0625H33.1875V32.6396C33.6554 32.0724 34.2523 31.6298 34.9766 31.3125C35.7039 30.9954 36.4728 30.8379 37.293 30.8379ZM87.501 33.7891H86.7764C85.6581 33.7891 84.8121 34.0745 84.2354 34.6416C83.6585 35.2088 83.373 36.193 83.373 37.5967V44.8555H80.5215V31.0625H83.373V33.0654C83.7896 32.3636 84.344 31.818 85.0361 31.4238C85.7283 31.0329 86.5524 30.835 87.501 30.835V33.7891ZM125.322 30.8379C126.405 30.8379 127.38 31.0628 128.239 31.5146C129.098 31.9665 129.771 32.6332 130.255 33.5176C130.739 34.402 130.982 35.4697 130.982 36.7227V44.8555H128.152V37.1455C128.152 35.9117 127.845 34.9626 127.227 34.3057C126.608 33.6455 125.764 33.3154 124.697 33.3154C123.63 33.3155 122.781 33.6456 122.156 34.3057C121.531 34.9658 121.218 35.9117 121.218 37.1455V44.8555H118.365V31.0625H121.218V32.6396C121.686 32.0724 122.282 31.6298 123.006 31.3125C123.733 30.9954 124.502 30.8379 125.322 30.8379ZM157.033 33.7891H156.31C155.191 33.7891 154.344 34.0744 153.768 34.6416C153.191 35.2088 152.905 36.193 152.905 37.5967V44.8555H150.054V31.0625H152.905V33.0654C153.322 32.3636 153.877 31.818 154.569 31.4238C155.261 31.0331 156.085 30.835 157.033 30.835V33.7891ZM240.23 30.8379C241.333 30.8379 242.317 31.0722 243.186 31.54C244.054 32.0079 244.721 32.684 245.188 33.5684C245.605 32.7355 246.255 32.0725 247.14 31.5791C248.024 31.0856 248.976 30.8418 249.992 30.8418C251.075 30.8418 252.049 31.0658 252.908 31.5176L252.911 31.5146C253.77 31.9665 254.447 32.6331 254.94 33.5176C255.434 34.402 255.677 35.4697 255.677 36.7227V44.8555H252.848V37.1455C252.848 35.9117 252.539 34.9626 251.921 34.3057C251.302 33.6457 250.46 33.3154 249.393 33.3154C248.326 33.3154 247.476 33.6457 246.852 34.3057C246.227 34.9658 245.912 35.9117 245.912 37.1455V44.8555H243.083V37.1455C243.083 35.9117 242.775 34.9626 242.156 34.3057C241.538 33.6456 240.695 33.3154 239.628 33.3154C238.561 33.3154 237.712 33.6457 237.087 34.3057C236.462 34.9658 236.147 35.9117 236.147 37.1455V44.8555H233.296V31.0625H236.147V32.6396C236.615 32.0724 237.209 31.6298 237.927 31.3125C238.644 30.9954 239.41 30.8379 240.23 30.8379ZM114.609 44.8545H111.758V31.0615H114.609V44.8545ZM179.488 44.8545H176.637V31.0615H179.488V44.8545ZM210.35 31.0625H213.705V33.3896H210.35V41.0225C210.35 41.5382 210.472 41.9101 210.712 42.1377C210.952 42.362 211.366 42.4746 211.952 42.4746H213.705V44.8525H211.452C210.167 44.8525 209.183 44.5514 208.497 43.9521C207.811 43.3497 207.472 42.3747 207.472 41.0225V33.3896H205.844V31.0625H207.472V27.6338H210.35V31.0625ZM6.00879 27.4561C7.34509 27.4561 8.47328 27.6863 9.39941 28.1445C10.3254 28.6027 11.0173 29.2248 11.4756 30.0098C11.9338 30.7949 12.165 31.67 12.165 32.6377C12.165 33.5222 11.9566 34.3555 11.54 35.1406H11.5371C11.1205 35.9257 10.4506 36.5634 9.53418 37.0537C8.61769 37.5472 7.43824 37.791 6.00586 37.791H2.85254V44.8506H0V27.4561H6.00879ZM69.708 33.3154C68.9743 33.3155 68.2884 33.4947 67.6572 33.8535C67.0227 34.2124 66.5101 34.7385 66.1191 35.4307C65.7282 36.1229 65.5293 36.9437 65.5293 37.8955C65.5294 38.8471 65.725 39.6807 66.1191 40.3984C66.5101 41.1161 67.0291 41.661 67.6699 42.0391C68.3109 42.414 68.9941 42.6025 69.7119 42.6025C70.4297 42.6025 71.1315 42.4202 71.7627 42.0518C72.3972 41.6864 72.9098 41.1479 73.3008 40.4365C73.6918 39.7283 73.8906 38.8981 73.8906 37.9463C73.8906 36.9945 73.6949 36.1673 73.3008 35.4688H73.2979C72.907 34.7672 72.3908 34.2357 71.7598 33.8672C71.1252 33.5019 70.4419 33.3154 69.708 33.3154ZM165.824 33.3154C165.09 33.3154 164.404 33.4946 163.772 33.8535C163.138 34.2124 162.625 34.7385 162.234 35.4307C161.843 36.1229 161.645 36.9437 161.645 37.8955C161.645 38.8471 161.84 39.6807 162.234 40.3984C162.625 41.1161 163.144 41.661 163.785 42.0391C164.426 42.414 165.109 42.6025 165.827 42.6025C166.545 42.6025 167.247 42.4202 167.878 42.0518C168.512 41.6865 169.025 41.1479 169.416 40.4365C169.807 39.7283 170.006 38.8981 170.006 37.9463C170.006 36.9945 169.81 36.1673 169.416 35.4688H169.413C169.022 34.7672 168.506 34.2357 167.875 33.8672C167.241 33.5019 166.558 33.3155 165.824 33.3154ZM222.492 33.3154C221.758 33.3155 221.073 33.4947 220.441 33.8535C219.807 34.2124 219.294 34.7385 218.903 35.4307C218.512 36.1229 218.313 36.9437 218.313 37.8955C218.314 38.8471 218.509 39.6807 218.903 40.3984C219.294 41.1161 219.813 41.661 220.454 42.0391C221.095 42.4139 221.777 42.6025 222.495 42.6025C223.213 42.6025 223.916 42.4203 224.547 42.0518C225.181 41.6864 225.694 41.1479 226.085 40.4365C226.476 39.7283 226.675 38.8981 226.675 37.9463C226.675 36.9945 226.479 36.1673 226.085 35.4688H226.082C225.691 34.767 225.174 34.2357 224.543 33.8672C223.908 33.5019 223.226 33.3154 222.492 33.3154ZM265.467 33.3154C264.733 33.3155 264.047 33.4947 263.416 33.8535C262.782 34.2124 262.269 34.7385 261.878 35.4307C261.487 36.1229 261.288 36.9437 261.288 37.8955C261.288 38.8471 261.484 39.6807 261.878 40.3984C262.269 41.1161 262.788 41.661 263.429 42.0391C264.07 42.414 264.753 42.6025 265.471 42.6025C266.188 42.6025 266.89 42.4202 267.521 42.0518C268.156 41.6864 268.669 41.1479 269.06 40.4365C269.451 39.7283 269.649 38.8981 269.649 37.9463C269.649 36.9945 269.454 36.1673 269.06 35.4688H269.057C268.666 34.7672 268.15 34.2357 267.519 33.8672C266.884 33.5019 266.201 33.3154 265.467 33.3154ZM52.7402 33.3145C52.0064 33.3145 51.3198 33.4946 50.6885 33.8535C50.0542 34.2124 49.5413 34.7377 49.1504 35.4297C48.7594 36.1219 48.5605 36.9427 48.5605 37.8945C48.5606 38.8462 48.7562 39.6797 49.1504 40.3975C49.5414 41.1152 50.0612 41.66 50.7021 42.0381C51.343 42.4129 52.0255 42.6016 52.7432 42.6016C53.4609 42.6015 54.1627 42.4193 54.7939 42.0508C55.4285 41.6855 55.9411 41.147 56.332 40.4355C56.723 39.7273 56.9219 38.8971 56.9219 37.9453C56.9218 36.9937 56.7261 36.1673 56.332 35.4688H56.3291C55.9382 34.767 55.4222 34.2347 54.791 33.8662C54.1566 33.5009 53.474 33.3145 52.7402 33.3145ZM20.7021 33.2383C19.7183 33.2383 18.8756 33.5529 18.1738 34.1777C17.4721 34.8026 17.0555 35.6517 16.9209 36.7188H24.5547C24.5386 35.6678 24.1634 34.8249 23.4297 34.1904C22.6958 33.5559 21.7853 33.2383 20.7021 33.2383ZM140.42 33.2383C139.436 33.2383 138.593 33.5528 137.892 34.1777C137.19 34.8026 136.773 35.6517 136.639 36.7188H144.272C144.256 35.6678 143.881 34.8249 143.147 34.1904C142.414 33.5559 141.503 33.2383 140.42 33.2383ZM2.85254 35.4678H6.00586C7.08888 35.4677 7.89943 35.2207 8.43457 34.7305V34.7275C8.96975 34.234 9.23633 33.5382 9.23633 32.6377C9.23625 30.7343 8.15916 29.7862 6.00586 29.7861H2.85254V35.4678ZM113.209 25.582C113.725 25.582 114.135 25.7582 114.484 26.1074C114.834 26.4566 115.01 26.8924 115.01 27.4082C115.01 27.9242 114.834 28.3606 114.484 28.71C114.135 29.0591 113.709 29.2354 113.209 29.2354C112.709 29.2353 112.257 29.0591 111.908 28.71C111.559 28.3606 111.383 27.9242 111.383 27.4082C111.383 26.8924 111.559 26.4566 111.908 26.1074C112.257 25.7582 112.693 25.5821 113.209 25.582ZM178.085 25.582C178.601 25.5821 179.011 25.7582 179.36 26.1074C179.71 26.4566 179.886 26.8924 179.886 27.4082C179.886 27.9242 179.71 28.3606 179.36 28.71C179.011 29.0592 178.585 29.2353 178.085 29.2354C177.585 29.2354 177.133 29.059 176.784 28.71C176.435 28.3606 176.258 27.9242 176.258 27.4082C176.258 26.8924 176.435 26.4566 176.784 26.1074C177.133 25.7583 177.569 25.582 178.085 25.582Z" fill="#122882"/>
<path d="M126.742 56.2002C127.216 56.2002 127.653 56.3154 128.015 56.543V56.5459C128.374 56.7734 128.633 57.0621 128.793 57.4082V56.2803H129.457V61.5898C129.457 62.064 129.354 62.4841 129.149 62.8525C128.944 63.2179 128.659 63.5035 128.29 63.7021C127.925 63.9008 127.505 64 127.037 64C126.374 64 125.823 63.8426 125.384 63.5254C124.945 63.2081 124.672 62.7789 124.563 62.2373H125.217C125.329 62.5962 125.547 62.8849 125.867 63.0996C126.188 63.3143 126.576 63.4228 127.037 63.4229C127.374 63.4229 127.672 63.3522 127.938 63.208C128.203 63.067 128.412 62.8559 128.562 62.5771C128.713 62.2983 128.79 61.9712 128.79 61.5898V60.3086C128.627 60.6642 128.363 60.9559 128.008 61.1865C127.652 61.4171 127.229 61.5322 126.742 61.5322C126.255 61.5322 125.842 61.4235 125.467 61.1992C125.092 60.9781 124.797 60.6636 124.586 60.2598C124.374 59.856 124.269 59.3884 124.269 58.8564C124.269 58.3245 124.374 57.8598 124.586 57.4561C124.797 57.0555 125.092 56.7443 125.467 56.5264C125.842 56.3085 126.268 56.2002 126.742 56.2002ZM104.05 60.7031L105.758 56.2842H106.44L103.367 63.8984H102.676L103.682 61.4336L101.557 56.2842H102.287L104.05 60.7031ZM133.325 60.7031L135.033 56.2842H135.716L132.643 63.8984H131.95L132.956 61.4336L130.832 56.2842H131.562L133.325 60.7031ZM205.505 61.4629H204.841V60.5527C204.69 60.8762 204.457 61.1232 204.14 61.293C203.822 61.4628 203.469 61.5488 203.078 61.5488C202.46 61.5487 201.953 61.3569 201.562 60.9756C201.172 60.5943 200.977 60.0398 200.977 59.3125V56.2871H201.63V59.2354C201.63 59.7992 201.771 60.2286 202.053 60.5234C202.335 60.8215 202.72 60.9688 203.207 60.9688C203.694 60.9687 204.104 60.8122 204.402 60.4951C204.7 60.1779 204.848 59.7127 204.848 59.1006V56.2842H205.505V61.4629ZM69.9688 56.2061C70.443 56.2061 70.8885 56.3213 71.2441 56.5488C71.5998 56.7764 71.8596 57.0684 72.0166 57.4209V56.2832H72.6797V61.4619H72.0166V60.3145C71.8532 60.6701 71.59 60.9617 71.2344 61.1924C70.8787 61.4231 70.4525 61.5391 69.959 61.5391C69.4655 61.5391 69.0683 61.4294 68.6934 61.2051C68.3184 60.984 68.023 60.6704 67.8115 60.2666C67.6 59.8628 67.4941 59.3943 67.4941 58.8623C67.4942 58.3305 67.6001 57.8656 67.8115 57.4619C68.023 57.0614 68.3185 56.7511 68.6934 56.5332C69.0683 56.3153 69.4945 56.2061 69.9688 56.2061ZM162.241 56.2061C162.715 56.2061 163.161 56.3213 163.517 56.5488C163.872 56.7764 164.132 57.0684 164.289 57.4209V56.2832H164.952V61.4619H164.289V60.3145C164.126 60.6702 163.863 60.9616 163.507 61.1924C163.151 61.4231 162.725 61.5391 162.231 61.5391C161.738 61.539 161.341 61.4294 160.966 61.2051C160.591 60.984 160.295 60.6704 160.084 60.2666C159.872 59.8628 159.768 59.3943 159.768 58.8623C159.768 58.3305 159.873 57.8656 160.084 57.4619C160.295 57.0614 160.591 56.7511 160.966 56.5332C161.341 56.3153 161.767 56.2061 162.241 56.2061ZM57.8574 56.209C58.3445 56.209 58.7875 56.3172 59.1816 56.5352C59.5757 56.753 59.886 57.0644 60.1104 57.4648C60.3347 57.8654 60.4473 58.3369 60.4473 58.8721C60.4472 59.4071 60.3352 59.8717 60.1045 60.2754C59.877 60.6792 59.5624 60.9898 59.165 61.2109C58.7678 61.432 58.3258 61.5381 57.8389 61.5381C57.3518 61.5381 56.9122 61.4289 56.5244 61.2109V61.208C56.1367 60.9901 55.8288 60.6788 55.6045 60.2783C55.3804 59.8779 55.2686 59.4069 55.2686 58.8721C55.2686 58.3369 55.3806 57.8654 55.6113 57.4648C55.8389 57.0643 56.15 56.7531 56.541 56.5352C56.9318 56.3174 57.3706 56.209 57.8574 56.209ZM194.096 56.209C194.583 56.209 195.025 56.3173 195.419 56.5352C195.813 56.7531 196.124 57.0643 196.349 57.4648C196.573 57.8654 196.685 58.3369 196.685 58.8721C196.685 59.4071 196.572 59.8717 196.342 60.2754C196.114 60.679 195.801 60.9898 195.403 61.2109C195.006 61.4321 194.563 61.5381 194.076 61.5381C193.589 61.5381 193.15 61.4288 192.763 61.2109V61.208C192.375 60.9901 192.067 60.6789 191.843 60.2783C191.619 59.8779 191.506 59.407 191.506 58.8721C191.506 58.337 191.618 57.8654 191.849 57.4648C192.076 57.0643 192.387 56.7531 192.778 56.5352C193.169 56.3173 193.609 56.209 194.096 56.209ZM216.278 56.209C216.765 56.209 217.208 56.3172 217.603 56.5352C217.997 56.7531 218.307 57.0644 218.531 57.4648C218.756 57.8654 218.868 58.3369 218.868 58.8721C218.868 59.4071 218.756 59.8717 218.525 60.2754C218.298 60.6792 217.983 60.9898 217.586 61.2109C217.189 61.432 216.747 61.538 216.26 61.5381C215.773 61.5381 215.333 61.4289 214.945 61.2109V61.208C214.558 60.9901 214.25 60.6789 214.025 60.2783C213.801 59.8779 213.69 59.4069 213.689 58.8721C213.689 58.3369 213.801 57.8654 214.032 57.4648C214.26 57.0643 214.571 56.7531 214.962 56.5352C215.353 56.3174 215.792 56.209 216.278 56.209ZM167.603 57.4277C167.772 57.0688 168.039 56.7744 168.395 56.5469H168.391C168.746 56.3193 169.17 56.2031 169.657 56.2031C170.144 56.2032 170.554 56.3126 170.929 56.5303C171.3 56.7482 171.596 57.0594 171.808 57.46C172.019 57.8605 172.125 58.3285 172.125 58.8604C172.125 59.3921 172.019 59.86 171.808 60.2637C171.596 60.6675 171.301 60.982 170.926 61.2031C170.551 61.4242 170.128 61.5361 169.66 61.5361C169.167 61.5361 168.74 61.4235 168.385 61.1992C168.029 60.9749 167.766 60.6834 167.603 60.3213V61.459H166.949V54.4414H167.603V57.4277ZM89.0654 56.2061C89.5586 56.2061 89.991 56.3148 90.3594 56.5293C90.7279 56.744 91.0132 57.0331 91.2119 57.3984C91.4106 57.7605 91.5098 58.1642 91.5098 58.6064C91.5098 58.8322 91.5038 59.0044 91.4912 59.126H87.1963C87.2156 59.5167 87.3085 59.8532 87.4814 60.1318C87.6545 60.4106 87.8765 60.6185 88.1553 60.7627C88.434 60.9036 88.7354 60.9775 89.0654 60.9775C89.4946 60.9775 89.8567 60.8722 90.1514 60.6641C90.4461 60.4558 90.6382 60.1736 90.7344 59.8213H91.4365C91.3083 60.3273 91.0391 60.7404 90.626 61.0576C90.2127 61.378 89.6901 61.5351 89.0654 61.5352C88.5785 61.5352 88.1423 61.4267 87.7578 61.209C87.3733 60.9911 87.0685 60.6798 86.8506 60.2793C86.6327 59.8787 86.5234 59.4073 86.5234 58.8721C86.5235 58.337 86.633 57.8627 86.8477 57.459C87.0624 57.0553 87.3636 56.744 87.748 56.5293C88.1325 56.3147 88.5721 56.2061 89.0654 56.2061ZM116.529 56.2061C117.023 56.2061 117.456 56.3147 117.824 56.5293C118.193 56.744 118.478 57.0331 118.677 57.3984C118.875 57.7605 118.975 58.1643 118.975 58.6064C118.975 58.8323 118.968 59.0044 118.955 59.126H114.661C114.68 59.5167 114.773 59.8531 114.946 60.1318C115.119 60.4105 115.341 60.6185 115.619 60.7627C115.898 60.9037 116.199 60.9775 116.529 60.9775C116.959 60.9775 117.321 60.8724 117.616 60.6641C117.911 60.4558 118.103 60.1736 118.199 59.8213H118.901C118.773 60.3275 118.503 60.7404 118.09 61.0576C117.676 61.3781 117.154 61.5352 116.529 61.5352C116.042 61.5351 115.606 61.4269 115.222 61.209C114.837 60.9911 114.533 60.6798 114.315 60.2793C114.098 59.8787 113.988 59.4073 113.988 58.8721C113.988 58.337 114.097 57.8627 114.312 57.459C114.526 57.0552 114.828 56.744 115.213 56.5293C115.597 56.3148 116.036 56.2061 116.529 56.2061ZM150.641 56.2061C151.134 56.2061 151.566 56.3148 151.935 56.5293C152.303 56.744 152.588 57.0331 152.787 57.3984C152.986 57.7605 153.085 58.1642 153.085 58.6064C153.085 58.8322 153.079 59.0044 153.066 59.126H148.771C148.791 59.5167 148.884 59.8532 149.057 60.1318C149.23 60.4106 149.452 60.6185 149.73 60.7627C150.009 60.9036 150.311 60.9775 150.641 60.9775C151.07 60.9775 151.432 60.8722 151.727 60.6641C152.021 60.4558 152.213 60.1736 152.31 59.8213H153.012C152.884 60.3273 152.614 60.7404 152.201 61.0576C151.788 61.378 151.265 61.5351 150.641 61.5352C150.154 61.5352 149.717 61.4267 149.333 61.209C148.948 60.9911 148.644 60.6798 148.426 60.2793C148.208 59.8787 148.099 59.4073 148.099 58.8721C148.099 58.337 148.208 57.8627 148.423 57.459C148.638 57.0553 148.939 56.744 149.323 56.5293C149.708 56.3147 150.147 56.2061 150.641 56.2061ZM178.704 56.2061C179.197 56.2061 179.63 56.3148 179.998 56.5293C180.367 56.744 180.652 57.0331 180.851 57.3984C181.049 57.7606 181.149 58.1642 181.149 58.6064C181.149 58.8322 181.143 59.0044 181.13 59.126H176.835C176.854 59.5168 176.948 59.8531 177.121 60.1318C177.294 60.4105 177.515 60.6185 177.794 60.7627C178.073 60.9037 178.374 60.9775 178.704 60.9775C179.133 60.9775 179.495 60.8722 179.79 60.6641C180.085 60.4558 180.277 60.1736 180.373 59.8213H181.075C180.947 60.3274 180.678 60.7404 180.265 61.0576C179.851 61.378 179.329 61.5351 178.704 61.5352C178.217 61.5352 177.781 61.4268 177.396 61.209C177.012 60.9911 176.707 60.6799 176.489 60.2793C176.271 59.8787 176.162 59.4073 176.162 58.8721C176.162 58.337 176.272 57.8627 176.486 57.459C176.701 57.0553 177.002 56.744 177.387 56.5293C177.771 56.3147 178.211 56.2061 178.704 56.2061ZM228.671 56.2031C229.228 56.2031 229.677 56.345 230.017 56.627C230.356 56.909 230.543 57.2968 230.568 57.7871H229.905C229.886 57.4827 229.767 57.2386 229.549 57.0527C229.331 56.8671 229.033 56.7745 228.652 56.7744C228.316 56.7744 228.046 56.8538 227.838 57.0107C227.63 57.1678 227.523 57.3669 227.523 57.5977C227.523 57.7995 227.585 57.9665 227.71 58.0947C227.835 58.2227 227.985 58.3248 228.171 58.3984C228.353 58.4721 228.6 58.5522 228.911 58.6387C229.283 58.7412 229.582 58.8375 229.803 58.9336C230.024 59.0297 230.213 59.168 230.373 59.3506C230.53 59.5332 230.613 59.7768 230.619 60.0811C230.619 60.3599 230.542 60.6073 230.392 60.8252C230.241 61.0428 230.03 61.2159 229.758 61.3408C229.485 61.4658 229.174 61.5293 228.818 61.5293C228.226 61.5293 227.738 61.3918 227.363 61.1162L227.357 61.123C226.982 60.8475 226.77 60.4723 226.726 59.998H227.408C227.44 60.2896 227.579 60.5234 227.822 60.7061C228.066 60.8854 228.393 60.9756 228.803 60.9756C229.161 60.9755 229.446 60.8885 229.651 60.7188C229.856 60.5489 229.959 60.3372 229.959 60.084C229.959 59.9079 229.901 59.7605 229.789 59.6484C229.674 59.5364 229.533 59.4439 229.356 59.3799C229.184 59.3127 228.947 59.2419 228.652 59.165C228.268 59.0625 227.953 58.9629 227.713 58.8604C227.473 58.7578 227.267 58.6101 227.101 58.4082C226.934 58.2096 226.851 57.9405 226.851 57.6074C226.851 57.3543 226.928 57.12 227.078 56.9053C227.229 56.6906 227.444 56.5208 227.723 56.3926C228.001 56.2677 228.315 56.2032 228.671 56.2031ZM98.2275 54.7539C98.8396 54.7539 99.336 54.9049 99.7109 55.2061C100.086 55.5073 100.304 55.8951 100.361 56.3662H99.6406C99.5958 56.0938 99.4485 55.8531 99.1953 55.6416C98.9422 55.4301 98.6025 55.3242 98.1699 55.3242C97.7725 55.3242 97.4388 55.4301 97.1729 55.6416C96.907 55.853 96.7755 56.1415 96.7754 56.5098C96.7754 56.7886 96.8499 57.0137 96.9941 57.1836C97.1382 57.3531 97.3205 57.4848 97.5381 57.5713C97.756 57.6578 98.051 57.7539 98.4258 57.8564C98.8551 57.9782 99.2047 58.0966 99.4707 58.2119C99.7367 58.3305 99.9609 58.5068 100.144 58.7471C100.326 58.9874 100.42 59.3111 100.42 59.7148C100.42 60.0256 100.336 60.317 100.173 60.5957C100.009 60.8745 99.766 61.0997 99.4424 61.2695C99.1187 61.4394 98.7338 61.5254 98.2852 61.5254C97.8366 61.5254 97.4651 61.4484 97.1318 61.2979C96.7985 61.1472 96.5387 60.9355 96.3496 60.6631C96.1606 60.3907 96.0577 60.0861 96.0449 59.7529H96.7471C96.7791 60.0765 96.9198 60.359 97.1729 60.6025C97.426 60.8461 97.7951 60.9678 98.2822 60.9678C98.7305 60.9677 99.0859 60.8525 99.3486 60.6221C99.6113 60.3914 99.743 60.0996 99.7432 59.7441C99.7432 59.4589 99.6696 59.2309 99.5254 59.0547C99.3812 58.8816 99.1981 58.7503 98.9834 58.667C98.7687 58.5805 98.4708 58.487 98.0928 58.3877C97.6508 58.266 97.2983 58.1512 97.042 58.0391C96.7824 57.9237 96.5606 57.7472 96.3779 57.5068C96.1953 57.2665 96.1025 56.9394 96.1025 56.5293C96.1025 56.1865 96.193 55.8824 96.3691 55.6133C96.5453 55.3442 96.7947 55.1353 97.1182 54.9814C97.4418 54.8308 97.8109 54.7539 98.2275 54.7539ZM187.865 54.7539C188.477 54.7539 188.975 54.9048 189.35 55.2061C189.724 55.5073 189.942 55.8952 190 56.3662H189.279C189.234 56.0938 189.086 55.8531 188.833 55.6416C188.58 55.4303 188.24 55.3242 187.808 55.3242C187.41 55.3243 187.077 55.4302 186.812 55.6416C186.546 55.853 186.414 56.1414 186.414 56.5098C186.414 56.7886 186.488 57.0137 186.632 57.1836C186.776 57.3533 186.959 57.4848 187.177 57.5713C187.395 57.6578 187.69 57.7539 188.064 57.8564C188.494 57.9782 188.843 58.0966 189.109 58.2119C189.375 58.3305 189.6 58.5068 189.782 58.7471C189.965 58.9874 190.058 59.3111 190.058 59.7148C190.058 60.0256 189.974 60.3169 189.811 60.5957C189.647 60.8745 189.404 61.0997 189.08 61.2695C188.756 61.4393 188.371 61.5254 187.923 61.5254C187.474 61.5253 187.103 61.4484 186.77 61.2979C186.436 61.1472 186.176 60.9355 185.987 60.6631C185.798 60.3908 185.696 60.0861 185.684 59.7529H186.385C186.417 60.0766 186.558 60.359 186.812 60.6025C187.065 60.846 187.433 60.9677 187.92 60.9678C188.368 60.9678 188.725 60.8527 188.987 60.6221C189.25 60.3914 189.382 60.0996 189.382 59.7441C189.382 59.4589 189.307 59.2309 189.163 59.0547C189.019 58.8818 188.837 58.7503 188.622 58.667C188.407 58.5805 188.109 58.487 187.731 58.3877C187.289 58.2659 186.936 58.1512 186.68 58.0391C186.42 57.9237 186.199 57.7471 186.017 57.5068C185.834 57.2665 185.741 56.9395 185.741 56.5293C185.741 56.1866 185.831 55.8824 186.007 55.6133C186.183 55.3441 186.433 55.1353 186.757 54.9814C187.08 54.8309 187.449 54.754 187.865 54.7539ZM137.206 60.5322C137.344 60.5322 137.45 60.577 137.543 60.6699C137.636 60.7628 137.681 60.8788 137.681 61.0166C137.681 61.1541 137.636 61.2724 137.543 61.3652C137.45 61.4614 137.337 61.5068 137.206 61.5068C137.075 61.5068 136.953 61.4582 136.86 61.3652C136.767 61.2692 136.722 61.1543 136.722 61.0166C136.722 60.8788 136.767 60.7629 136.86 60.6699C136.953 60.5772 137.068 60.5322 137.206 60.5322ZM232.456 60.5322C232.594 60.5323 232.699 60.5772 232.792 60.6699C232.885 60.7629 232.93 60.8788 232.93 61.0166C232.93 61.1542 232.885 61.2724 232.792 61.3652C232.699 61.4613 232.587 61.5067 232.456 61.5068C232.325 61.5068 232.202 61.4582 232.109 61.3652C232.017 61.2692 231.972 61.1542 231.972 61.0166C231.972 60.8788 232.016 60.7629 232.109 60.6699C232.202 60.5771 232.318 60.5322 232.456 60.5322ZM63.9697 60.8154H63.9727L65.7158 56.2842H66.418L64.3408 61.4629H63.5908L61.5146 56.2842H62.2256L63.9697 60.8154ZM83.0049 60.8154H83.0078L84.751 56.2842H85.4531L83.376 61.4629H82.627L80.5498 56.2842H81.2617L83.0049 60.8154ZM40.6357 61.4619H39.9727V54.832H40.6357V61.4619ZM79.1846 61.4619H78.5215V56.2832H79.1846V61.4619ZM155.44 61.4619H154.777V54.4434H155.44V61.4619ZM158.088 61.4619H157.424V56.2832H158.088V61.4619ZM174.483 61.4619H173.819V54.4434H174.483V61.4619ZM199.037 61.4619H198.374V54.4434H199.037V61.4619ZM212.01 61.4619H211.347V56.2832H212.01V61.4619ZM144.353 54.8291C145.093 54.8291 145.654 55.0056 146.035 55.3613C146.416 55.717 146.608 56.1815 146.608 56.7549C146.608 57.2355 146.471 57.646 146.195 57.9824C145.92 58.3221 145.513 58.54 144.978 58.6426L146.686 61.46H145.891L144.25 58.6904H143.025V61.46H142.362V54.8291H144.353ZM45.042 56.1875C45.6603 56.1875 46.1667 56.3796 46.5576 56.7607H46.5615C46.9524 57.142 47.1474 57.6966 47.1475 58.4238V61.459H46.4941V58.501C46.4941 57.9372 46.353 57.508 46.0713 57.21C45.7893 56.9119 45.4041 56.7637 44.917 56.7637C44.43 56.7637 44.0197 56.9211 43.7217 57.2383C43.4236 57.5555 43.2764 58.0207 43.2764 58.6328V61.459H42.6133V56.2803H43.2764V57.1611C43.4398 56.844 43.6775 56.6041 43.9883 56.4375C44.299 56.271 44.648 56.1875 45.042 56.1875ZM51.5186 56.1875C52.137 56.1875 52.6432 56.3795 53.0342 56.7607H53.0371C53.428 57.142 53.624 57.6965 53.624 58.4238V61.459H52.9707V58.501C52.9707 57.937 52.8289 57.508 52.5469 57.21C52.2649 56.9119 51.8807 56.7637 51.3936 56.7637C50.9065 56.7637 50.4963 56.9211 50.1982 57.2383C49.9002 57.5555 49.7529 58.0207 49.7529 58.6328V61.459H49.0898V56.2803H49.7529V57.1611C49.9163 56.8442 50.1533 56.6041 50.4639 56.4375C50.7747 56.2709 51.1244 56.1875 51.5186 56.1875ZM110.241 56.1875C110.86 56.1875 111.366 56.3796 111.757 56.7607H111.761C112.152 57.142 112.347 57.6966 112.347 58.4238V61.459H111.693V58.501C111.693 57.9372 111.552 57.508 111.271 57.21C110.988 56.9119 110.603 56.7637 110.116 56.7637C109.629 56.7637 109.219 56.9211 108.921 57.2383C108.623 57.5555 108.476 58.0207 108.476 58.6328V61.459H107.812V56.2803H108.476V57.1611C108.639 56.844 108.877 56.6041 109.188 56.4375C109.498 56.271 109.847 56.1875 110.241 56.1875ZM123.105 56.8799H122.926C122.445 56.8799 122.061 57.0081 121.77 57.2676C121.478 57.5272 121.333 57.9597 121.333 58.5654V61.459H120.67V56.2803H121.333V57.2002C121.477 56.8766 121.702 56.6264 122.003 56.4502L122 56.4531C122.301 56.2769 122.67 56.1875 123.105 56.1875V56.8799ZM222.979 56.1875C223.598 56.1875 224.104 56.3796 224.495 56.7607H224.499C224.89 57.142 225.085 57.6966 225.085 58.4238V61.459H224.432V58.501C224.432 57.9372 224.291 57.508 224.009 57.21C223.727 56.9119 223.342 56.7637 222.854 56.7637C222.367 56.7637 221.957 56.9211 221.659 57.2383C221.361 57.5555 221.214 58.0207 221.214 58.6328V61.459H220.551V56.2803H221.214V57.1611C221.377 56.844 221.615 56.6041 221.926 56.4375C222.237 56.271 222.585 56.1875 222.979 56.1875ZM75.5312 56.2793H76.9541V56.8408H75.5342V60.0547C75.5342 60.372 75.5953 60.5904 75.7139 60.709C75.8325 60.8307 76.0475 60.8877 76.3486 60.8877H76.9541V61.458H76.2432C75.7754 61.458 75.429 61.3496 75.1982 61.1318C74.9707 60.9139 74.8584 60.5546 74.8584 60.0547V56.8408H74.1377V56.2793H74.8584V54.9814H75.5312V56.2793ZM208.356 56.2793H209.779V56.8408H208.359V60.0547C208.359 60.372 208.42 60.5904 208.539 60.709C208.658 60.8307 208.873 60.8877 209.174 60.8877H209.779V61.458H209.068C208.601 61.458 208.254 61.3496 208.023 61.1318C207.796 60.9139 207.684 60.5546 207.684 60.0547V56.8408H206.963V56.2793H207.684V54.9814H208.356V56.2793ZM169.522 56.7871C169.154 56.7871 168.843 56.8733 168.552 57.043C168.257 57.2128 168.025 57.4563 167.855 57.7734C167.686 58.0907 167.6 58.4565 167.6 58.873C167.6 59.2897 167.686 59.6586 167.855 59.9727C168.025 60.2899 168.26 60.5333 168.552 60.7031C168.846 60.8728 169.17 60.959 169.522 60.959C169.875 60.959 170.218 60.8756 170.51 60.709C170.801 60.5423 171.028 60.2988 171.198 59.9785C171.365 59.6581 171.448 59.2863 171.448 58.8633C171.448 58.4403 171.365 58.0621 171.198 57.748C171.032 57.4341 170.801 57.1966 170.51 57.0332C170.218 56.8698 169.891 56.7871 169.522 56.7871ZM126.867 56.7832C126.515 56.7832 126.171 56.8669 125.88 57.0303C125.589 57.1936 125.361 57.4336 125.191 57.7441C125.025 58.0581 124.941 58.4301 124.941 58.8594C124.941 59.2887 125.025 59.6542 125.191 59.9746C125.358 60.295 125.588 60.5394 125.88 60.7061C126.171 60.8727 126.499 60.956 126.867 60.9561C127.236 60.9561 127.546 60.8689 127.838 60.6992C128.133 60.5294 128.364 60.286 128.537 59.9688C128.707 59.6515 128.793 59.2858 128.793 58.8691C128.793 58.4528 128.707 58.0844 128.537 57.7705C128.367 57.4532 128.133 57.2089 127.838 57.0391C127.543 56.8694 127.22 56.7832 126.867 56.7832ZM57.8447 56.7852C57.5019 56.7852 57.188 56.8628 56.8965 57.0166C56.605 57.1704 56.3742 57.4039 56.2012 57.7178C56.0282 58.0318 55.9414 58.4132 55.9414 58.8682C55.9414 59.3232 56.0281 59.7084 56.2012 60.0225C56.3742 60.3364 56.6052 60.5699 56.8936 60.7236C57.1818 60.8774 57.4955 60.955 57.835 60.9551C58.1747 60.9551 58.4926 60.8775 58.7842 60.7236H58.7871C59.0786 60.5698 59.3128 60.3364 59.4922 60.0225C59.6717 59.7084 59.7617 59.3264 59.7617 58.8682C59.7617 58.41 59.6713 58.0286 59.4951 57.7178C59.319 57.4072 59.0853 57.1704 58.7939 57.0166C58.5023 56.8628 58.1876 56.7852 57.8447 56.7852ZM70.0898 56.7832C69.7376 56.7833 69.3949 56.8661 69.1035 57.0293C68.8119 57.1927 68.5839 57.4333 68.4141 57.7441C68.2474 58.0582 68.1641 58.43 68.1641 58.8594C68.1641 59.2887 68.2475 59.6542 68.4141 59.9746C68.5807 60.2951 68.8119 60.5384 69.1035 60.7051C69.395 60.8716 69.7215 60.955 70.0898 60.9551C70.4584 60.9551 70.7699 60.8691 71.0615 60.6992C71.3562 60.5294 71.5868 60.2858 71.7598 59.9688C71.9296 59.6515 72.0166 59.2858 72.0166 58.8691C72.0166 58.4525 71.9296 58.0836 71.7598 57.7695C71.5899 57.4525 71.3562 57.2088 71.0615 57.0391C70.7667 56.8692 70.4424 56.7832 70.0898 56.7832ZM162.363 56.7832C162.011 56.7832 161.668 56.8659 161.376 57.0293C161.084 57.1927 160.856 57.4333 160.687 57.7441C160.52 58.0582 160.437 58.43 160.437 58.8594C160.437 59.2887 160.52 59.6542 160.687 59.9746C160.853 60.295 161.084 60.5384 161.376 60.7051C161.668 60.8717 161.995 60.9551 162.363 60.9551C162.732 60.955 163.042 60.869 163.334 60.6992C163.629 60.5294 163.859 60.2858 164.032 59.9688C164.202 59.6515 164.289 59.2858 164.289 58.8691C164.289 58.4525 164.202 58.0836 164.032 57.7695C163.862 57.4525 163.629 57.2088 163.334 57.0391C163.039 56.8693 162.716 56.7833 162.363 56.7832ZM194.083 56.7852C193.74 56.7852 193.425 56.8628 193.134 57.0166C192.842 57.1704 192.611 57.4039 192.438 57.7178C192.265 58.0318 192.179 58.4132 192.179 58.8682C192.179 59.3232 192.265 59.7084 192.438 60.0225C192.611 60.3364 192.843 60.5698 193.131 60.7236C193.419 60.8775 193.734 60.9551 194.073 60.9551C194.413 60.9551 194.73 60.8774 195.021 60.7236H195.025C195.317 60.5699 195.55 60.3361 195.729 60.0225C195.909 59.7084 195.999 59.3264 195.999 58.8682C195.999 58.41 195.91 58.0286 195.733 57.7178C195.557 57.407 195.323 57.1704 195.031 57.0166C194.74 56.8628 194.426 56.7852 194.083 56.7852ZM216.266 56.7852C215.923 56.7852 215.609 56.8628 215.317 57.0166C215.026 57.1704 214.795 57.4039 214.622 57.7178C214.449 58.0318 214.362 58.4132 214.362 58.8682C214.362 59.3232 214.449 59.7084 214.622 60.0225C214.795 60.3364 215.026 60.5699 215.314 60.7236C215.603 60.8773 215.916 60.955 216.256 60.9551C216.596 60.9551 216.913 60.8775 217.205 60.7236H217.208C217.5 60.5698 217.734 60.3364 217.913 60.0225C218.093 59.7084 218.183 59.3264 218.183 58.8682C218.183 58.41 218.092 58.0286 217.916 57.7178C217.74 57.4072 217.506 57.1704 217.215 57.0166C216.923 56.8628 216.609 56.7852 216.266 56.7852ZM91.4912 59.1289V59.126H91.4941L91.4912 59.1289ZM118.955 59.1289V59.126H118.959L118.955 59.1289ZM153.066 59.1289V59.126H153.069L153.066 59.1289ZM181.13 59.1289V59.126H181.133L181.13 59.1289ZM89.0361 56.7764C88.5426 56.7764 88.1227 56.9337 87.7734 57.251C87.4242 57.5682 87.2319 58.0134 87.1934 58.5869H90.834C90.8404 58.2025 90.7629 57.8729 90.5996 57.6006H90.6064C90.4462 57.3282 90.2251 57.1222 89.9463 56.9844C89.6675 56.8466 89.3629 56.7764 89.0361 56.7764ZM116.501 56.7764C116.007 56.7764 115.588 56.9337 115.238 57.251C114.889 57.5682 114.697 58.0134 114.658 58.5869H118.299C118.305 58.2026 118.228 57.8729 118.064 57.6006H118.071C117.911 57.3282 117.69 57.1222 117.411 56.9844C117.132 56.8466 116.828 56.7764 116.501 56.7764ZM150.614 56.7764C150.121 56.7764 149.701 56.9338 149.352 57.251C149.002 57.5682 148.81 58.0135 148.771 58.5869H152.412C152.418 58.2027 152.342 57.8728 152.179 57.6006H152.185C152.024 57.3282 151.803 57.1222 151.524 56.9844C151.246 56.8467 150.941 56.7764 150.614 56.7764ZM178.675 56.7764C178.181 56.7764 177.761 56.9337 177.412 57.251C177.063 57.5682 176.871 58.0135 176.832 58.5869H180.473C180.479 58.2027 180.402 57.8728 180.239 57.6006H180.245C180.085 57.3282 179.864 57.1222 179.585 56.9844C179.306 56.8467 179.002 56.7764 178.675 56.7764ZM143.029 58.1523H144.365C144.884 58.1523 145.276 58.0276 145.535 57.7744C145.798 57.5212 145.929 57.184 145.929 56.7578C145.929 56.3318 145.804 55.9861 145.551 55.749C145.298 55.5119 144.9 55.3936 144.355 55.3936H143.029V58.1523ZM78.8545 54.3281C78.9889 54.3281 79.1015 54.3731 79.1943 54.4658C79.2905 54.5588 79.3359 54.6747 79.3359 54.8125C79.3359 54.9502 79.2872 55.0683 79.1943 55.1611C79.0982 55.2573 78.9859 55.3027 78.8545 55.3027C78.7233 55.3026 78.6077 55.254 78.5117 55.1611C78.4159 55.0651 78.3711 54.95 78.3711 54.8125C78.3711 54.6747 78.4188 54.5588 78.5117 54.4658C78.6045 54.373 78.7201 54.3282 78.8545 54.3281ZM157.758 54.3281C157.892 54.3282 158.004 54.3732 158.097 54.4658C158.193 54.5588 158.238 54.6747 158.238 54.8125C158.238 54.9502 158.19 55.0683 158.097 55.1611C158.001 55.2572 157.889 55.3026 157.758 55.3027C157.626 55.3027 157.51 55.2541 157.414 55.1611C157.318 55.0651 157.273 54.95 157.273 54.8125C157.273 54.6747 157.321 54.5587 157.414 54.4658C157.507 54.3729 157.623 54.3281 157.758 54.3281ZM211.68 54.3281C211.814 54.3282 211.927 54.3729 212.02 54.4658C212.116 54.5588 212.16 54.6747 212.16 54.8125C212.16 54.95 212.112 55.0683 212.02 55.1611C211.923 55.2572 211.811 55.3027 211.68 55.3027C211.548 55.3027 211.433 55.2541 211.337 55.1611C211.241 55.0651 211.195 54.9502 211.195 54.8125C211.195 54.6747 211.244 54.5588 211.337 54.4658C211.43 54.3731 211.545 54.3281 211.68 54.3281Z" fill="#122882"/>
<path d="M288.365 8.60781C288.365 8.88982 288.252 9.15902 288.054 9.35771C287.935 9.48269 287.781 9.56922 287.621 9.62049C287.519 9.65254 287.41 9.66856 287.297 9.66856C287.015 9.66856 286.746 9.5596 286.544 9.35771C286.384 9.19747 286.282 8.99237 286.246 8.76804L284.195 1.14087L284.224 1.13446C284.208 1.06396 284.195 0.983841 284.195 0.906928C284.195 0.66978 284.288 0.435838 284.461 0.265989C284.586 0.137801 284.74 0.0576849 284.904 0.0192286C284.968 0.00640983 285.035 0 285.102 0C285.339 0 285.57 0.0929355 285.743 0.265989C285.846 0.368539 285.919 0.493523 285.961 0.624916L285.971 0.653758L288.294 8.24568L288.313 8.30657C288.342 8.40271 288.361 8.50205 288.361 8.60461L288.365 8.60781Z" fill="#122882"/>
<path d="M285.673 15.4604C285.673 15.627 285.628 15.7969 285.542 15.9443C285.5 16.0148 285.449 16.0853 285.388 16.1462C285.202 16.3288 284.959 16.4282 284.702 16.4282C284.523 16.4282 284.35 16.3801 284.199 16.2872L284.164 16.268L282.453 15.2713L272.845 9.65667C272.797 9.62783 272.755 9.59578 272.713 9.55412C272.572 9.41312 272.502 9.22724 272.502 9.04457C272.502 8.92921 272.531 8.81384 272.592 8.70808C272.621 8.64719 272.662 8.5831 272.717 8.53182C272.858 8.39082 273.044 8.32031 273.226 8.32031C273.322 8.32031 273.422 8.33954 273.511 8.3812C273.553 8.39402 273.592 8.41645 273.624 8.43889L283.218 13.5728L285.074 14.5631L285.084 14.5695L285.189 14.6239C285.26 14.6624 285.327 14.7137 285.388 14.7746C285.571 14.9572 285.673 15.204 285.673 15.4604Z" fill="#F2630D"/>
<path d="M283.721 20.8765C283.721 21.1777 283.65 21.4629 283.516 21.7161C283.429 21.8891 283.317 22.0462 283.179 22.184C282.977 22.3859 282.734 22.5397 282.458 22.6294L282.388 22.6519L275.177 24.9015H275.174L274.821 25.0105C274.684 25.0426 274.536 25.0586 274.389 25.0586C273.831 25.0586 273.325 24.831 272.963 24.4689C272.825 24.3311 272.71 24.1741 272.617 24.001C272.61 23.9914 272.604 23.9818 272.604 23.969C272.553 23.844 272.501 23.7222 272.453 23.5972V23.5908H272.45C272.402 23.4146 272.373 23.2319 272.373 23.0396C272.373 22.4852 272.597 21.9789 272.963 21.6135C273.213 21.3636 273.533 21.1777 273.889 21.088L273.982 21.0655L281.208 19.1555H281.212C281.417 19.0722 281.644 19.0273 281.881 19.0273C282.07 19.0273 282.253 19.0562 282.423 19.1107C282.715 19.2004 282.974 19.3606 283.186 19.5689C283.41 19.7869 283.573 20.0625 283.66 20.3701C283.705 20.5271 283.727 20.697 283.727 20.87L283.721 20.8765Z" fill="#122882"/>
<path d="M308.115 13.6601C308.115 14.003 307.977 14.3267 307.74 14.5606C307.599 14.7016 307.432 14.8042 307.247 14.865C307.237 14.8715 307.224 14.8747 307.211 14.8779L299.773 17.2077C299.635 17.2525 299.494 17.2718 299.347 17.2718C298.953 17.2718 298.591 17.1147 298.321 16.8456C298.158 16.6821 298.036 16.4834 297.966 16.2623C297.921 16.1213 297.898 15.9739 297.898 15.82C297.898 15.4291 298.055 15.0669 298.325 14.7978C298.507 14.6151 298.728 14.4869 298.978 14.4228L299.078 14.394L306.452 12.4327L306.493 12.4231C306.602 12.391 306.721 12.375 306.836 12.375C307.182 12.375 307.506 12.5128 307.74 12.75C307.785 12.7948 307.827 12.8429 307.865 12.8942C307.865 12.8942 307.866 12.8963 307.868 12.9006C307.936 13.0352 308.003 13.1762 308.067 13.3108C308.067 13.3108 308.068 13.3129 308.07 13.3172C308.102 13.4229 308.115 13.5351 308.115 13.6537V13.6601Z" fill="#122882"/>
<path d="M289.064 23.2848C289.064 23.5444 289.004 23.7912 288.888 24.0091L288.85 24.0764L288.029 25.6147L283.793 33.5623L283.636 33.8603H283.633C283.565 33.9725 283.482 34.0718 283.392 34.1648C283.059 34.4981 282.601 34.7 282.101 34.7C281.777 34.7 281.473 34.6166 281.21 34.4692C281.197 34.4628 281.178 34.4532 281.165 34.4404C281.152 34.434 281.136 34.4276 281.123 34.418C281.12 34.418 281.117 34.4147 281.114 34.4083C281.072 34.3859 281.033 34.3571 280.998 34.3282C280.979 34.3154 280.957 34.2962 280.937 34.2834C280.892 34.2449 280.848 34.2032 280.806 34.1648C280.473 33.8283 280.268 33.3732 280.268 32.8701C280.268 32.5432 280.354 32.2388 280.508 31.9728L280.585 31.8446L285.302 23.8553L286.081 22.5414L286.158 22.41C286.215 22.3202 286.286 22.2369 286.36 22.1632C286.651 21.8716 287.049 21.6953 287.481 21.6953C287.757 21.6953 288.017 21.7658 288.244 21.894C288.379 21.9613 288.497 22.0542 288.603 22.16C288.891 22.4484 289.064 22.8458 289.064 23.2784V23.2848Z" fill="#F2630D"/>
<path d="M309.119 28.2996C309.119 28.4085 309.106 28.5175 309.084 28.6232C309.081 28.6296 309.081 28.6329 309.077 28.6393C309.026 28.7675 308.978 28.8924 308.924 29.0142C308.92 29.0302 308.914 29.0495 308.904 29.0623C308.901 29.0751 308.895 29.0847 308.888 29.0975C308.831 29.1841 308.763 29.2642 308.693 29.3379C308.427 29.6039 308.058 29.7673 307.661 29.7673C307.424 29.7673 307.193 29.7096 306.994 29.6071L306.937 29.5718L306.917 29.5622L296.791 23.8034L290.644 20.3103L289.519 19.6693L289.5 19.6597C289.394 19.602 289.301 19.5283 289.215 19.445C289.058 19.288 288.942 19.0957 288.881 18.8778C288.846 18.7624 288.83 18.6406 288.83 18.5188C288.83 18.2913 288.888 18.0734 288.997 17.8843L289.641 16.7691L292.656 11.5711L297.274 3.60419L297.294 3.56573H297.297C297.342 3.48562 297.396 3.41191 297.46 3.34781C297.665 3.14592 297.944 3.02734 298.236 3.02734C298.527 3.02734 298.803 3.14271 299.008 3.34781C299.213 3.55291 299.329 3.83172 299.329 4.12335C299.329 4.33165 299.271 4.53355 299.162 4.7066L299.149 4.72583L294.515 12.7504L291.394 18.1567L297.867 21.5409L308.308 26.9953L308.359 27.0241C308.478 27.0882 308.593 27.1715 308.69 27.2709C308.962 27.5368 309.119 27.9054 309.119 28.3028V28.2996Z" fill="#F2630D"/>
<path d="M296.999 36.8324C296.999 37.281 296.816 37.6977 296.515 37.9957C296.31 38.2008 296.053 38.3514 295.765 38.4251C295.63 38.4636 295.492 38.4796 295.351 38.4796C294.903 38.4796 294.489 38.2969 294.188 37.9957C294.005 37.813 293.864 37.5919 293.788 37.3419L293.739 37.1625V37.1529L291.737 29.5866L291.708 29.4776C291.679 29.3687 291.666 29.2501 291.666 29.1347C291.666 28.7309 291.826 28.356 292.102 28.0804C292.278 27.9041 292.493 27.7759 292.733 27.7054C292.868 27.6638 293.012 27.6445 293.156 27.6445C293.56 27.6445 293.935 27.8048 294.211 28.0804C294.358 28.2246 294.47 28.4008 294.544 28.5899V28.6027L294.605 28.7918L296.874 36.1915L296.88 36.2075L296.951 36.4446C296.983 36.5696 296.999 36.6946 296.999 36.8292V36.8324Z" fill="#122882"/>
</svg>
