<svg width="128" height="128" viewBox="0 0 128 128" fill="none" xmlns="http://www.w3.org/2000/svg">
<rect width="128" height="128" rx="24" fill="#122882"/>
<path d="M58.9687 39.909C58.9687 40.5586 58.7067 41.1864 58.2481 41.645C57.9697 41.9288 57.6203 42.1363 57.2491 42.2564C57.0089 42.3273 56.7578 42.3656 56.5013 42.3656C55.8516 42.3656 55.2239 42.1144 54.7544 41.645C54.3832 41.2738 54.143 40.7988 54.0665 40.2802L49.3281 22.6476L49.3936 22.6312C49.3554 22.4675 49.3281 22.2819 49.3281 22.1072C49.3281 21.5613 49.541 21.0208 49.945 20.6223C50.2289 20.3275 50.5892 20.1365 50.9658 20.0491C51.1187 20.0164 51.2661 20 51.4244 20C51.9703 20 52.5053 20.2129 52.9092 20.6169C53.1494 20.8571 53.3132 21.1409 53.4169 21.4466L53.4388 21.5121L58.8159 39.0629L58.865 39.2048H58.8595C58.9305 39.4286 58.9687 39.6579 58.9687 39.8926V39.909Z" fill="#E7ECFD"/>
<path d="M52.7437 55.7557C52.7437 56.1433 52.64 56.5309 52.4435 56.8748C52.3507 57.044 52.2306 57.2023 52.0886 57.3443C51.6628 57.7646 51.0951 57.9939 50.5055 57.9939C50.0906 57.9939 49.6867 57.8847 49.3428 57.6663L49.2609 57.6172L45.3031 55.308L23.0904 42.332C22.9812 42.2665 22.8829 42.1901 22.7901 42.0918C22.4626 41.7642 22.2988 41.3384 22.2988 40.9126C22.2988 40.6452 22.3643 40.3831 22.5063 40.1375C22.5718 39.9955 22.6755 39.8536 22.7901 39.7335C23.1177 39.406 23.5435 39.2422 23.9693 39.2422C24.1931 39.2422 24.4224 39.2913 24.6298 39.3841C24.7226 39.4169 24.81 39.466 24.8919 39.5206L47.0718 51.3885L51.3626 53.6813L51.3844 53.6976L51.6301 53.8232C51.7993 53.9105 51.9467 54.0306 52.0886 54.1726C52.509 54.5929 52.7492 55.1661 52.7492 55.7557H52.7437Z" fill="#E7ECFD"/>
<path d="M48.236 68.2635C48.236 68.9622 48.0668 69.6173 47.7611 70.2069C47.5645 70.6054 47.3025 70.9657 46.9859 71.2878C46.5164 71.7573 45.9541 72.1121 45.3209 72.3195L45.1571 72.3741L28.4853 77.5765H28.4798L27.661 77.8277C27.3444 77.8986 27.0004 77.9368 26.662 77.9368C25.3682 77.9368 24.2054 77.4128 23.3648 76.5721C23.0481 76.2555 22.7806 75.8897 22.5623 75.4967C22.5459 75.4748 22.5295 75.4475 22.5295 75.4257C22.4094 75.1418 22.2893 74.8525 22.1801 74.5686V74.5523H22.1747C22.0655 74.1483 22 73.7225 22 73.2749C22 71.992 22.5131 70.8238 23.3648 69.9776C23.9434 69.399 24.6804 68.9732 25.5047 68.7657L25.7176 68.7111L42.4221 64.2948H42.4276C42.9025 64.1037 43.4266 64 43.9725 64C44.4092 64 44.8296 64.0655 45.2226 64.1911C45.8941 64.3985 46.5 64.7697 46.9804 65.2556C47.4936 65.7633 47.8757 66.3965 48.0722 67.1116C48.1759 67.4774 48.2305 67.865 48.2305 68.2689L48.236 68.2635Z" fill="#E7ECFD"/>
<path d="M104.633 51.5764C104.633 52.3679 104.317 53.1158 103.771 53.6617C103.443 53.9892 103.056 54.224 102.63 54.3659C102.608 54.3823 102.575 54.3878 102.548 54.3987L85.352 59.7813C85.0354 59.885 84.7079 59.9341 84.3694 59.9341C83.4578 59.9341 82.6171 59.5684 82.0002 58.9515C81.6181 58.5694 81.3396 58.1108 81.1759 57.6031C81.0722 57.2756 81.0176 56.9371 81.0176 56.5823C81.0176 55.6761 81.3833 54.8409 82.0002 54.2185C82.4205 53.7982 82.9337 53.4979 83.5123 53.356L83.7416 53.2905L100.785 48.7541L100.877 48.7322C101.129 48.6613 101.402 48.623 101.669 48.623C102.471 48.623 103.214 48.9397 103.76 49.4856C103.864 49.5893 103.956 49.6985 104.044 49.8186C104.044 49.8186 104.045 49.824 104.049 49.8349C104.207 50.1461 104.36 50.4682 104.508 50.7848C104.508 50.7848 104.509 50.7903 104.513 50.8012C104.584 51.0468 104.617 51.3089 104.617 51.5764H104.633Z" fill="#E7ECFD"/>
<path d="M60.5848 73.8368C60.5848 74.4373 60.4429 75.0105 60.1808 75.5073L60.0935 75.6656L58.1992 79.2249L48.4058 97.5999L48.04 98.2877H48.0346C47.8762 98.5497 47.6852 98.779 47.4777 98.9919C46.708 99.7617 45.649 100.231 44.4862 100.231C43.7383 100.231 43.0341 100.04 42.4227 99.7016C42.3899 99.6852 42.3517 99.6634 42.319 99.6361C42.2862 99.6197 42.2535 99.6033 42.2262 99.5815C42.2207 99.5815 42.2098 99.576 42.2043 99.5597C42.1115 99.5051 42.0242 99.4396 41.9368 99.3795C41.8877 99.3468 41.844 99.3086 41.7949 99.2758C41.6912 99.1885 41.5875 99.0957 41.4947 98.9974C40.7249 98.2222 40.25 97.1686 40.25 96.0004C40.25 95.247 40.4465 94.5428 40.8068 93.926L40.9815 93.6312L51.8886 75.1579L53.6901 72.1227L53.8648 71.8225C54.0012 71.615 54.1595 71.4239 54.3342 71.2493C55.0057 70.5778 55.9283 70.1738 56.9273 70.1738C57.5605 70.1738 58.1665 70.3376 58.6851 70.6324C58.9962 70.7907 59.2692 71.0036 59.5148 71.2493C60.1808 71.9153 60.5848 72.8324 60.5848 73.8314V73.8368Z" fill="#E7ECFD"/>
<path d="M106.948 85.4328C106.948 85.6839 106.915 85.9405 106.866 86.1807C106.86 86.1971 106.86 86.2025 106.849 86.2189C106.729 86.5137 106.62 86.803 106.494 87.0814C106.489 87.1197 106.473 87.1633 106.445 87.1906C106.44 87.2234 106.423 87.2452 106.407 87.2725C106.271 87.469 106.123 87.6601 105.954 87.8293C105.337 88.4462 104.486 88.8229 103.568 88.8229C103.022 88.8229 102.488 88.6864 102.029 88.4516L101.892 88.3698L101.843 88.3479L78.4297 75.0389L64.2253 66.9595L61.6268 65.4747L61.5777 65.4529C61.3321 65.3164 61.1191 65.1526 60.9172 64.9561C60.5514 64.5903 60.2894 64.1482 60.1474 63.6459C60.0656 63.3784 60.0273 63.1 60.0273 62.8107C60.0273 62.2866 60.1638 61.7789 60.4149 61.3422L61.9052 58.7656L68.8764 46.7448L79.5542 28.3261L79.6033 28.2388H79.6088C79.7125 28.0586 79.8381 27.884 79.9909 27.7311C80.4659 27.2616 81.1101 26.9941 81.7815 26.9941C82.453 26.9941 83.0917 27.2616 83.5666 27.7311C84.0415 28.206 84.3036 28.8502 84.3036 29.5217C84.3036 30.0075 84.1671 30.4715 83.916 30.87L83.8832 30.9192L73.1726 49.4689L65.9558 61.97L80.9244 69.7928L105.064 82.4085L105.184 82.474C105.463 82.6269 105.725 82.8125 105.943 83.0472C106.571 83.6641 106.937 84.5157 106.937 85.4328H106.948Z" fill="#E7ECFD"/>
<path d="M78.9319 105.155C78.9319 106.193 78.5116 107.153 77.8128 107.841C77.3379 108.316 76.7429 108.666 76.0769 108.835C75.7657 108.922 75.4491 108.96 75.1161 108.96C74.0789 108.96 73.1235 108.54 72.4303 107.841C72.0099 107.421 71.6824 106.908 71.5022 106.329L71.393 105.914V105.892L66.7638 88.4018L66.6983 88.1507C66.6328 87.8995 66.6055 87.6266 66.6055 87.3591C66.6055 86.4256 66.9767 85.5576 67.6099 84.9244C68.0139 84.5204 68.5161 84.2202 69.0675 84.0619C69.3786 83.969 69.7117 83.9199 70.0447 83.9199C70.9782 83.9199 71.8461 84.2911 72.4794 84.9244C72.8178 85.2574 73.0799 85.6613 73.2491 86.1035V86.1363L73.391 86.573L78.6371 103.682L78.6535 103.72L78.8173 104.266C78.8883 104.55 78.9265 104.844 78.9265 105.155H78.9319Z" fill="#E7ECFD"/>
</svg>
